Coordinates
version=1
nRows=17
nColumns=24
inDegrees=yes

Units are S.I. units (second, meters, Newtons, ...)
Angles are in degrees.

endheader
time	pelvis_tilt	pelvis_list	pelvis_rotation	pelvis_tx	pelvis_ty	pelvis_tz	hip_flexion_r	hip_adduction_r	hip_rotation_r	knee_angle_r	ankle_angle_r	subtalar_angle_r	mtp_angle_r	hip_flexion_l	hip_adduction_l	hip_rotation_l	knee_angle_l	ankle_angle_l	subtalar_angle_l	mtp_angle_l	lumbar_extension	lumbar_bending	lumbar_rotation
      2.28000000	     21.47737723	     -1.78628618	      4.12776790	      0.78442611	      0.88143540	      0.02133151	    -41.16904982	      6.15457423	      0.50017485	    -20.58260599	      0.66722877	     12.38048137	     51.47754739	     -1.53958963	      2.82863007	     24.90504049	    -14.42179571	    -13.61610089	    -40.63914819	     21.10739873	    -26.76308082	      0.17804513	      2.72773858
      2.28500000	     21.36179410	     -1.59535375	      4.72919351	      0.79028608	      0.88238606	      0.02009482	    -40.22593735	      6.14825114	     -1.16547049	    -22.56111868	     -1.04679889	     12.81646480	     55.42204402	     -1.69325866	      3.05658520	     25.49051525	    -14.75651732	    -12.74892687	    -39.71488811	     18.94561416	    -26.68621486	      0.14048591	      2.11293327
      2.29000000	     21.17865117	     -1.41516494	      5.34584865	      0.79614187	      0.88322927	      0.01873359	    -39.16466335	      6.08503786	     -2.86997876	    -24.64511246	     -2.53047481	     13.51837261	     55.49584461	     -1.85825718	      3.27315467	     26.28473440	    -14.90274878	    -12.38507703	    -39.66778039	     18.84127481	    -26.53635725	      0.12876621	      1.48411852
      2.29500000	     21.02060905	     -1.22669136	      5.92610207	      0.80194407	      0.88409309	      0.01737800	    -38.11377327	      5.92740499	     -4.57009665	    -26.73466550	     -4.00865398	     14.10792898	     55.59752992	     -2.05652171	      3.49187016	     26.95294818	    -15.04871725	    -12.01031087	    -39.53862793	     18.71589289	    -26.42082558	      0.10146329	      0.88522786
      2.30000000	     20.88053421	     -1.06949968	      6.51348240	      0.80770348	      0.88499568	      0.01600717	    -37.09430676	      5.77206659	     -6.16232568	    -28.74786012	     -5.52666340	     14.24334713	     55.60498078	     -2.31591241	      3.65493667	     27.67353318	    -15.10102451	    -11.64371763	    -39.43835766	     18.67171007	    -26.32617253	      0.11436929	      0.29773753
      2.30500000	     20.70396149	     -0.91727736	      7.05365004	      0.81348705	      0.88582782	      0.01465660	    -36.02542764	      5.53360689	     -7.70976366	    -30.76935907	     -6.87513741	     14.34400032	     55.56937062	     -2.57004724	      3.80644489	     28.33436671	    -15.09211349	    -11.22804457	    -39.38091784	     18.60777978	    -26.18870631	      0.11487495	     -0.25729137
      2.31000000	     20.55800898	     -0.77447952	      7.56270262	      0.81925015	      0.88669686	      0.01332623	    -35.00131473	      5.25494259	     -9.16869664	    -32.72946623	     -8.13689503	     14.18804607	     55.44217062	     -2.88503885	      3.92933529	     28.93675860	    -15.02030131	    -10.85820160	    -39.35642842	     18.54650905	    -26.08436119	      0.12149531	     -0.77998767
      2.31500000	     20.41201820	     -0.65142495	      8.04115770	      0.82500140	      0.88756029	      0.01201527	    -33.98334335	      4.95285248	    -10.51712954	    -34.63474015	     -9.24563832	     13.83269170	     55.21494039	     -3.22274684	      4.02156844	     29.51163072	    -14.90426351	    -10.50020050	    -39.36989497	     18.49036621	    -25.97719550	      0.14157603	     -1.27506780
      2.32000000	     20.25862246	     -0.56362634	      8.48978418	      0.83079276	      0.88840332	      0.01073895	    -32.97339451	      4.65195029	    -11.75088650	    -36.46047991	    -10.15474985	     13.26763992	     54.76850303	     -3.59111320	      4.05425658	     30.06054604	    -14.68907085	    -10.13375806	    -39.46013421	     18.39312337	    -25.85057711	      0.18796548	     -1.73322693
      2.32500000	     20.22489622	     -0.44695690	      8.87080596	      0.83652260	      0.88941269	      0.00956623	    -32.10395031	      4.29803092	    -12.85204388	    -38.23804819	    -10.75421337	     12.75054966	     50.87067126	     -4.13329373	      4.08486950	     30.55530684	    -14.38937502	     -9.96943917	    -39.75195514	     17.56640858	    -25.86608864	      0.19510218	     -2.12329771
      2.33000000	     20.09678683	     -0.40218249	      9.23972141	      0.84227253	      0.89027079	      0.00837129	    -31.12458986	      3.97538025	    -13.86449167	    -39.93136697	    -11.28342386	     12.01978013	     50.61264006	     -4.53671136	      4.05111771	     30.96390682	    -14.14492064	     -9.59208873	    -39.71930891	     17.59392596	    -25.76341052	      0.26861681	     -2.49700790
      2.33500000	     20.02627808	     -0.38554904	      9.55219669	      0.84807700	      0.89122115	      0.00731145	    -30.23101447	      3.68587396	    -14.71820285	    -41.48995487	    -11.62287424	     10.95954786	     50.05826122	     -5.04768882	      3.94636948	     31.29960883	    -13.78554790	     -9.25961919	    -39.79362244	     17.59898585	    -25.71130809	      0.35261671	     -2.80866779
      2.34000000	     20.08007859	     -0.33915586	      9.78464123	      0.85387349	      0.89233392	      0.00636535	    -29.48461403	      3.34560721	    -15.46815537	    -42.99136231	    -11.49831647	     10.26330006	     45.65667716	     -5.74794318	      3.83249055	     31.55792485	    -13.30842563	     -9.16415254	    -40.14899475	     17.65342976	    -25.79931398	      0.39926460	     -3.04961077
      2.34500000	     20.00839235	     -0.36517944	     10.01132933	      0.85973676	      0.89326850	      0.00542914	    -28.59562383	      3.06426344	    -16.13002037	    -44.37203180	    -11.45338182	      9.22707496	     45.35036088	     -6.27492711	      3.66241827	     31.74348466	    -12.89024421	     -8.86607539	    -40.15928945	     17.71011083	    -25.72912312	      0.50035288	     -3.27663932
      2.35000000	     20.04705474	     -0.40610172	     10.17231290	      0.86555895	      0.89434424	      0.00462302	    -27.83007111	      2.81169957	    -16.65549167	    -45.63057793	    -11.19113292	      8.03219106	     44.87904495	     -6.94813937	      3.43989537	     31.86397789	    -12.40168571	     -8.63100297	    -40.21523890	     17.77404739	    -25.78110290	      0.61060667	     -3.40632922
      2.35500000	     20.11137403	     -0.44760969	     10.25219020	      0.87147966	      0.89545839	      0.00394101	    -27.09675134	      2.53314148	    -17.07693093	    -46.83432047	    -10.47466189	      7.33900705	     40.26800547	     -7.70081773	      3.19484840	     31.88324721	    -11.78952769	     -8.61749811	    -40.59300460	     18.38041996	    -25.84896657	      0.69410601	     -3.49449716
      2.36000000	     20.17616799	     -0.53151032	     10.32313738	      0.87742730	      0.89655393	      0.00331642	    -26.37633083	      2.32902243	    -17.42064346	    -47.85470427	     -9.87304641	      6.14648788	     40.05399415	     -8.43928350	      2.89677232	     31.83993329	    -11.20040656	     -8.37387671	    -40.60812804	     18.45361249	    -25.90685609	      0.81729445	     -3.57425528
